<svg width="240" height="43" viewBox="0 0 240 43" xmlns="http://www.w3.org/2000/svg"><title>Artboard</title><g fill="none" fill-rule="evenodd"><g transform="translate(0 4)"><circle fill="#212121" cx="17" cy="17" r="17"/><path fill="#BDBDBD" d="M5.1 5.1h23.8v23.8H5.1z"/><path fill="#FFF" d="M28.9 5.1L17 28.9 5.1 5.1z"/></g><path d="M0 4h34v34H0z"/><path d="M61.682 13.781l2.314 7.11 2.5-7.11h2.246V28h-1.758v-5.674l.147-5.937-2.627 7.656h-1.035l-2.412-7.451.146 5.732V28h-1.758V13.781h2.237zm16.806 10.537h-4.746L72.6 28h-1.807l4.59-14.219h1.513L81.408 28h-1.797l-1.123-3.682zm-4.258-1.572h3.78l-1.875-6.172-1.905 6.172zm19.063-7.422h-4.395V28h-1.757V15.324h-4.395v-1.543h10.547v1.543zm10.234 6.104H97.59v5.039h6.924V28h-8.73V13.781h8.642v1.543H97.59v4.57h5.937v1.534zm8.887.771h-2.842V28h-1.797V13.781h4.17c.664.013 1.29.108 1.875.283.586.176 1.099.44 1.538.791.44.352.785.793 1.036 1.324.25.53.376 1.154.376 1.87 0 .462-.067.885-.2 1.27a3.817 3.817 0 0 1-.552 1.044c-.235.313-.515.59-.84.83a5.486 5.486 0 0 1-1.074.616l3.017 6.074-.01.117h-1.904l-2.793-5.8v-.001zm-2.842-1.484h2.422c.404-.007.785-.07 1.143-.19.358-.121.672-.295.942-.523a2.47 2.47 0 0 0 .64-.835c.156-.329.234-.708.234-1.138 0-.455-.075-.854-.224-1.196a2.384 2.384 0 0 0-.625-.86 2.675 2.675 0 0 0-.953-.522 4.162 4.162 0 0 0-1.206-.185h-2.373v5.449zm10.137-6.934h8.594v1.573h-3.408v11.084h3.408V28h-8.594v-1.563h3.33V15.355h-3.33V13.78v.001zm18.789 10.537h-4.746L132.609 28h-1.806l4.59-14.219h1.513L141.418 28h-1.797l-1.123-3.682zm-4.258-1.572h3.78l-1.875-6.172-1.905 6.172zm11.514 3.72h6.953V28h-8.76V13.781h1.807v12.686-.001zM163.53 28V13.781h3.291c.99.013 1.874.18 2.652.503a5.57 5.57 0 0 1 1.972 1.348c.55.597.968 1.302 1.23 2.07.284.804.429 1.694.435 2.671v1.045c-.006.977-.151 1.867-.434 2.67a5.837 5.837 0 0 1-1.23 2.071 5.57 5.57 0 0 1-1.973 1.348c-.778.322-1.662.486-2.652.493h-3.291zm1.836-12.734v11.26h1.455c.768-.007 1.433-.142 1.992-.406a3.886 3.886 0 0 0 1.392-1.079c.368-.456.641-.993.82-1.611.18-.619.272-1.29.279-2.012v-1.064a7.27 7.27 0 0 0-.284-2.007 4.606 4.606 0 0 0-.82-1.602 3.817 3.817 0 0 0-1.387-1.07c-.56-.26-1.224-.396-1.992-.41h-1.455v.001zm18.174 6.162h-5.937v5.039h6.923V28h-8.73V13.781h8.642v1.543h-6.835v4.57h5.937v1.534zm11.621 2.978c0-.436-.1-.804-.298-1.103-.2-.302-.462-.56-.766-.757a4.989 4.989 0 0 0-1.03-.513c-.375-.137-.735-.26-1.08-.37a16.253 16.253 0 0 1-1.528-.587 6.663 6.663 0 0 1-1.416-.84 4.231 4.231 0 0 1-1.045-1.176c-.27-.453-.405-.985-.405-1.597s.135-1.159.405-1.64c.27-.483.623-.89 1.06-1.221a4.773 4.773 0 0 1 1.484-.757 5.582 5.582 0 0 1 1.67-.26c.618 0 1.214.103 1.787.309a4.94 4.94 0 0 1 1.523.864c.443.37.798.82 1.065 1.347a4.04 4.04 0 0 1 .42 1.768h-1.856a3.947 3.947 0 0 0-.302-1.118 2.766 2.766 0 0 0-.596-.864 2.612 2.612 0 0 0-.884-.562 3.16 3.16 0 0 0-1.157-.2c-.345 0-.682.049-1.01.146a2.718 2.718 0 0 0-.88.44c-.255.193-.465.44-.615.723a2.08 2.08 0 0 0-.23.996c.007.41.111.756.313 1.04.202.283.457.522.767.717.309.196.644.358 1.005.489.362.13.702.244 1.021.341.352.111.706.236 1.064.376.359.14.704.302 1.036.484.332.182.64.387.927.615.287.228.537.487.752.776.215.29.383.61.503.957.12.349.18.735.18 1.158 0 .638-.14 1.194-.424 1.67a3.83 3.83 0 0 1-1.099 1.186 4.95 4.95 0 0 1-1.523.713c-.566.16-1.133.24-1.7.24a5.99 5.99 0 0 1-1.855-.294 5.327 5.327 0 0 1-1.626-.844 4.425 4.425 0 0 1-1.167-1.348c-.3-.53-.459-1.134-.478-1.812h1.846c.058.443.179.835.36 1.177a2.87 2.87 0 0 0 1.695 1.406 4 4 0 0 0 1.226.181c.35 0 .7-.044 1.04-.132.326-.08.636-.22.913-.41.267-.185.485-.42.654-.703.17-.283.254-.62.254-1.01v-.001zm4.56-10.625h8.594v1.573h-3.408v11.084h3.408V28h-8.593v-1.563h3.33V15.355h-3.33V13.78l-.001.001zm21.202 12.354c-.6.703-1.286 1.224-2.06 1.562-.775.339-1.625.505-2.55.498a5.02 5.02 0 0 1-1.616-.268 4.664 4.664 0 0 1-1.323-.713 5.079 5.079 0 0 1-1.025-1.07 6.707 6.707 0 0 1-.738-1.332c-.2-.485-.35-.989-.449-1.504a8.954 8.954 0 0 1-.161-1.587v-1.65a10.29 10.29 0 0 1 .142-1.578c.085-.515.221-1.02.405-1.509.182-.481.41-.929.683-1.342.274-.414.601-.772.982-1.075.38-.302.812-.542 1.294-.717a4.704 4.704 0 0 1 1.62-.264 5.3 5.3 0 0 1 1.837.308 4.39 4.39 0 0 1 1.465.878c.416.381.752.84 1.006 1.377.253.538.41 1.138.468 1.802h-1.787a5.086 5.086 0 0 0-.332-1.138 2.87 2.87 0 0 0-.59-.893 2.617 2.617 0 0 0-.875-.581 3.076 3.076 0 0 0-1.181-.21c-.43 0-.81.073-1.143.22-.324.14-.619.34-.869.59a3.251 3.251 0 0 0-.615.865 6.141 6.141 0 0 0-.4 1.04c-.104.364-.18.737-.225 1.113a9.132 9.132 0 0 0-.069 1.094v1.67c.007.358.038.727.093 1.108.055.381.142.754.259 1.118.117.365.267.71.45 1.035.181.326.401.612.658.86.257.247.555.444.894.59.338.147.723.224 1.152.23.248.007.506-.003.777-.03.27-.025.532-.077.786-.155.254-.079.491-.184.713-.318.221-.133.407-.307.556-.522l.02-3.194h-2.89V20.92h4.609l.029 5.215zM232.633 28h-1.836l-5.518-10.625L225.25 28h-1.826V13.781h1.836l5.517 10.606.03-10.606h1.826V28z" fill="#000"/></g></svg>