<svg width="384" height="384" viewBox="0 0 384 384" xmlns="http://www.w3.org/2000/svg"><title>Artboard</title><path d="M198.19 167.627H103.71v39.003h54.327c-1.396 9.133-7.301 21.919-20.078 30.622-8.267 5.587-19.433 9.563-34.142 9.563-26.197-.108-48.422-17.729-56.367-41.582A60.656 60.656 0 0 1 44.336 186a60.656 60.656 0 0 1 3.113-19.233c7.945-23.853 30.17-41.582 56.367-41.582 19.219 0 31.566 8.596 38.115 14.72l29.31-28.58C153.849 95.1 131.088 85.106 103.925 85c-39.511.107-73.546 22.671-90.187 55.657C6.865 154.303 3 169.668 3 186c0 16.332 3.865 31.697 10.737 45.343C30.27 264.22 64.306 286.893 103.709 287c27.378-.107 50.14-9.026 66.888-24.39 19.111-17.622 30.063-43.624 30.063-74.354.107-8.273-.967-14.29-2.47-20.63zM281.076 85h-60.232v202h60.232c39.404 0 73.653-22.671 90.187-55.657C378.135 217.697 382 202.332 382 186c0-16.332-3.865-31.697-10.737-45.343C354.622 107.671 320.48 85 281.076 85zm56.475 120.233c-7.945 23.853-30.277 41.69-56.475 41.69H261V125.184h20.077c26.305 0 48.53 17.729 56.475 41.69a60.656 60.656 0 0 1 3.113 19.232 60.49 60.49 0 0 1-3.113 19.126z" fill="#0090EA" fill-rule="evenodd"/></svg>